<svg width="390" height="844" viewBox="0 0 390 844" fill="none" xmlns="http://www.w3.org/2000/svg">
<g clip-path="url(#clip0_246_358)">
<rect width="390" height="844" fill="#F0E9D1"/>
<path d="M81.1387 19.7996C80.8081 15.8268 85.0321 13.0837 88.527 15.0016L217.741 85.9119C221.055 87.731 221.229 92.4292 218.058 94.4885L101.069 170.463C97.8974 172.522 93.6762 170.452 93.3626 166.684L81.1387 19.7996Z" fill="#2B2B6B"/>
<path d="M231.899 1.66124C229.392 -1.61085 231.699 -6.34031 235.821 -6.37937L398.225 -7.91828C401.941 -7.9535 404.396 -4.06663 402.767 -0.726652L339.136 129.736C337.507 133.076 332.933 133.535 330.673 130.585L231.899 1.66124Z" fill="#2B2B6B"/>
<path d="M219.993 85.2088C223.268 82.9361 227.756 85.2226 227.842 89.2082L231.039 236.566C231.121 240.346 227.139 242.846 223.77 241.129L99.4799 177.8C96.1109 176.083 95.7929 171.393 98.8994 169.237L219.993 85.2088Z" fill="#688356"/>
<path d="M89.0759 47.7715C92.3651 45.7085 96.6481 48.0183 96.7314 51.9L99.1937 166.631C99.2759 170.462 95.1945 172.958 91.8215 171.139L-7.859 117.382C-11.232 115.563 -11.3889 110.782 -8.14232 108.745L89.0759 47.7715Z" fill="#FFE66D"/>
<path d="M97.1254 45.9966C100.091 47.9462 100.138 52.2793 97.2152 54.2926L2.06037 119.83C-1.23655 122.101 -5.73213 119.77 -5.77546 115.767L-7.17189 -13.2335C-7.21522 -17.2365 -2.77115 -19.6647 0.574143 -17.4658L97.1254 45.9966Z" fill="#FA7921"/>
<path d="M334.969 153.51C337.692 155.462 337.762 159.487 335.109 161.533L232.303 240.817C229.047 243.327 224.322 241.055 224.25 236.945L221.546 82.014C221.474 77.9037 226.117 75.4679 229.458 77.8633L334.969 153.51Z" fill="#FA7921"/>
<path d="M93.6909 57.8608C91.9461 59.1166 89.5938 59.1166 87.849 57.8608L-4.17395 -8.37458C-8.11434 -11.2108 -6.108 -17.4327 -1.25305 -17.4327L182.793 -17.4327C187.648 -17.4327 189.654 -11.2108 185.714 -8.37458L93.6909 57.8608Z" fill="#688356"/>
<path d="M220.861 88.6889C220.686 91.853 217.65 94.059 214.587 93.247L100.306 62.9521C96.2344 61.8727 95.2406 56.5501 98.6486 54.074L219.432 -33.6802C222.84 -36.1562 227.595 -33.5663 227.363 -29.3601L220.861 88.6889Z" fill="#BA706A"/>
<path d="M272.64 109.969C273.719 107.1 277.102 105.868 279.773 107.372L397.011 173.394C400.734 175.49 400.283 180.988 396.268 182.449L231.657 242.362C227.643 243.824 223.763 239.902 225.268 235.903L272.64 109.969Z" fill="#BA706A"/>
<path d="M223.283 110.284C220.388 110.332 218.058 107.919 218.207 105.027L223.885 -5.23933C224.11 -9.60658 229.437 -11.6012 232.475 -8.4555L337.194 99.9848C340.232 103.13 338.053 108.385 333.68 108.457L223.283 110.284Z" fill="#BD1B1E"/>
<path d="M403.55 6.0326C406.973 3.29698 412.009 5.97472 411.655 10.3422L398.52 172.477C398.23 176.061 394.364 178.176 391.189 176.488L277.253 115.908C274.078 114.219 273.67 109.832 276.479 107.587L403.55 6.0326Z" fill="#FFE66D"/>
<path d="M308.988 839.799C309.318 843.771 305.094 846.515 301.599 844.597L172.386 773.686C169.071 771.867 168.897 767.169 172.068 765.11L289.058 689.136C292.229 687.076 296.45 689.146 296.764 692.914L308.988 839.799Z" fill="#2B2B6B"/>
<path d="M158.227 857.937C160.734 861.209 158.428 865.938 154.306 865.978L-8.09874 867.516C-11.8146 867.552 -14.2691 863.665 -12.6401 860.325L50.9909 729.862C52.6199 726.522 57.1939 726.063 59.4539 729.013L158.227 857.937Z" fill="#2B2B6B"/>
<path d="M170.134 774.389C166.858 776.662 162.371 774.376 162.284 770.39L159.088 623.033C159.006 619.252 162.987 616.753 166.356 618.469L290.647 681.798C294.016 683.515 294.334 688.206 291.227 690.361L170.134 774.389Z" fill="#688356"/>
<path d="M301.051 811.827C297.761 813.89 293.478 811.58 293.395 807.698L290.933 692.967C290.851 689.136 294.932 686.64 298.305 688.459L397.985 742.216C401.358 744.035 401.515 748.817 398.269 750.853L301.051 811.827Z" fill="#FFE66D"/>
<path d="M293.001 813.602C290.035 811.652 289.988 807.319 292.911 805.306L388.066 739.768C391.363 737.497 395.859 739.829 395.902 743.832L397.298 872.832C397.342 876.835 392.898 879.263 389.552 877.064L293.001 813.602Z" fill="#FA7921"/>
<path d="M55.1573 706.088C52.4347 704.136 52.3644 700.111 55.0173 698.065L157.824 618.782C161.079 616.271 165.805 618.543 165.877 622.654L168.581 777.584C168.653 781.695 164.009 784.13 160.668 781.735L55.1573 706.088Z" fill="#FA7921"/>
<path d="M296.436 801.737C298.18 800.482 300.533 800.482 302.277 801.737L394.3 867.973C398.241 870.809 396.234 877.031 391.38 877.031L207.334 877.031C202.479 877.031 200.472 870.809 204.413 867.973L296.436 801.737Z" fill="#688356"/>
<path d="M169.266 770.909C169.44 767.745 172.476 765.539 175.539 766.351L289.82 796.646C293.892 797.725 294.886 803.048 291.478 805.524L170.695 893.278C167.287 895.754 162.532 893.164 162.763 888.958L169.266 770.909Z" fill="#BA706A"/>
<path d="M117.487 749.629C116.408 752.498 113.025 753.73 110.354 752.226L-6.8847 686.204C-10.6073 684.108 -10.156 678.61 -6.14138 677.149L158.469 617.236C162.484 615.775 166.363 619.696 164.859 623.695L117.487 749.629Z" fill="#BA706A"/>
<path d="M166.844 749.315C169.738 749.267 172.069 751.68 171.92 754.571L166.242 864.838C166.017 869.205 160.689 871.199 157.652 868.054L52.932 759.613C49.8942 756.468 52.0736 751.213 56.446 751.141L166.844 749.315Z" fill="#BD1B1E"/>
<path d="M-13.4236 853.566C-16.8466 856.301 -21.8826 853.624 -21.5288 849.256L-8.39366 687.121C-8.10329 683.537 -4.23766 681.422 -1.06263 683.11L112.873 743.691C116.048 745.379 116.456 749.766 113.647 752.011L-13.4236 853.566Z" fill="#FFE66D"/>
</g>
<defs>
<clipPath id="clip0_246_358">
<rect width="390" height="844" fill="white"/>
</clipPath>
</defs>
</svg>
