<svg width="390" height="294" viewBox="0 0 390 294" fill="none" xmlns="http://www.w3.org/2000/svg">
<path d="M81.1388 19.7995C80.8082 15.8267 85.0322 13.0836 88.527 15.0015L217.741 85.9117C221.055 87.7308 221.229 92.4291 218.058 94.4884L101.069 170.462C97.8975 172.522 93.6762 170.452 93.3626 166.684L81.1388 19.7995Z" fill="#2B2B6B"/>
<path d="M231.899 1.66124C229.392 -1.61085 231.699 -6.34031 235.821 -6.37937L398.225 -7.91828C401.941 -7.9535 404.396 -4.06663 402.767 -0.726652L339.136 129.736C337.507 133.076 332.933 133.535 330.673 130.585L231.899 1.66124Z" fill="#2B2B6B"/>
<path d="M219.993 85.2087C223.268 82.9359 227.756 85.2225 227.842 89.2081L231.039 236.565C231.121 240.346 227.139 242.846 223.77 241.129L99.4799 177.8C96.1109 176.083 95.7929 171.393 98.8994 169.237L219.993 85.2087Z" fill="#688356"/>
<path d="M89.0759 47.7714C92.3651 45.7084 96.6481 48.0182 96.7314 51.8999L99.1937 166.631C99.2759 170.462 95.1945 172.958 91.8215 171.139L-7.859 117.382C-11.232 115.563 -11.3889 110.781 -8.14232 108.745L89.0759 47.7714Z" fill="#FFE66D"/>
<path d="M97.1254 45.9966C100.092 47.9462 100.138 52.2793 97.2152 54.2926L2.06043 119.83C-1.23649 122.101 -5.73207 119.77 -5.7754 115.767L-7.17183 -13.2335C-7.21516 -17.2365 -2.77109 -19.6647 0.574204 -17.4658L97.1254 45.9966Z" fill="#FA7921"/>
<path d="M334.969 153.51C337.692 155.462 337.762 159.487 335.109 161.533L232.303 240.817C229.047 243.327 224.322 241.055 224.25 236.944L221.546 82.0139C221.474 77.9036 226.117 75.4678 229.458 77.8631L334.969 153.51Z" fill="#FA7921"/>
<path d="M93.6909 57.8608C91.9461 59.1166 89.5938 59.1166 87.849 57.8608L-4.17395 -8.37458C-8.11434 -11.2108 -6.108 -17.4327 -1.25305 -17.4327L182.793 -17.4327C187.648 -17.4327 189.654 -11.2108 185.714 -8.37458L93.6909 57.8608Z" fill="#688356"/>
<path d="M220.861 88.689C220.686 91.8532 217.65 94.0591 214.587 93.2471L100.306 62.9523C96.2345 61.8728 95.2407 56.5502 98.6487 54.0741L219.432 -33.68C222.84 -36.1561 227.595 -33.5661 227.363 -29.3599L220.861 88.689Z" fill="#BA706A"/>
<path d="M272.64 109.969C273.719 107.1 277.102 105.868 279.773 107.373L397.011 173.394C400.734 175.49 400.283 180.988 396.268 182.449L231.657 242.362C227.643 243.824 223.763 239.902 225.268 235.904L272.64 109.969Z" fill="#BA706A"/>
<path d="M223.283 110.284C220.388 110.331 218.058 107.918 218.207 105.027L223.885 -5.23946C224.11 -9.6067 229.437 -11.6013 232.475 -8.45563L337.194 99.9847C340.232 103.13 338.053 108.385 333.68 108.457L223.283 110.284Z" fill="#BD1B1E"/>
<path d="M403.55 6.03248C406.973 3.29686 412.009 5.97459 411.655 10.3421L398.52 172.477C398.23 176.061 394.364 178.176 391.189 176.488L277.253 115.907C274.078 114.219 273.67 109.832 276.479 107.587L403.55 6.03248Z" fill="#FFE66D"/>
</svg>
