<svg width="50" height="31" viewBox="0 0 50 31" fill="none" xmlns="http://www.w3.org/2000/svg">
<g clip-path="url(#clip0_175_4092)">
<path d="M17.9276 1.60254L25.5808 8.69605L33.6139 1.95972L17.9276 1.60254Z" fill="#FFAD60"/>
<path d="M10.7756 31.4287L21.8801 31.4066L21.8547 21.6326L10.7756 31.4287Z" fill="#2B2B6B"/>
<path d="M-0.0592651 26.392L11.0447 26.2864L10.9251 16.5129L-0.0592651 26.392Z" fill="#688356"/>
<path d="M30.1832 21.6389L30.2012 31.4288L41.2878 31.4133L30.1832 21.6389Z" fill="#688356"/>
<path d="M6.4707 14.023L17.5742 14.1606L17.7299 4.38745L6.4707 14.023Z" fill="#BD1B1E"/>
<path d="M39.0187 16.6023L39.0366 26.3922L50.1233 26.3767L39.0187 16.6023Z" fill="#FFAD60"/>
<path d="M33.9644 4.37061L33.9824 14.1605L45.069 14.145L33.9644 4.37061Z" fill="#2B2B6B"/>
<path d="M25.2765 12.709V15.2459C25.2414 15.2756 25.2091 15.3084 25.1799 15.3439H22.6044V16.3184H25.1826C25.2111 16.3529 25.2425 16.3848 25.2766 16.4137V18.9532H26.2622V16.4137C26.2972 16.3849 26.3295 16.353 26.3588 16.3184H28.937V15.3439H26.3615C26.3314 15.3082 26.2982 15.2754 26.2621 15.2459V12.709L25.2765 12.709Z" fill="black"/>
</g>
<defs>
<clipPath id="clip0_175_4092">
<rect width="50" height="31" fill="white"/>
</clipPath>
</defs>
</svg>
